<svg xmlns="http://www.w3.org/2000/svg" viewBox="0 0 708.23 632.88"><defs><style>.cls-1{fill:#fff;}</style></defs><g id="Layer_2" data-name="Layer 2"><g id="Layer_1-2" data-name="Layer 1"><path d="M543.19,228.39c-.34,4.76-.91,8.84-.86,12.92q.33,28.92,1,57.82c.22,9.19.83,18.36,1.25,27.55,1.13,25.18,2.5,50.35,3.33,75.54.73,22.67.85,45.36,1.27,68,.58,30.83.77,61.68,2,92.5.71,18.48,2,37,5.67,55.22.53,2.64-.48,4.24-3.66,5a69.06,69.06,0,0,1-10.93,1.9c-21.88,1.65-43.74,3.56-65.65,4.58-29.46,1.37-59,2-88.45,2.95-34.1,1.05-68.2.13-102.29-.57-13.19-.28-26.39-.77-39.55-1.57-26.78-1.63-53.54-3.5-80.3-5.39A66.67,66.67,0,0,1,155,623c-3.37-.82-3.94-2.23-3.53-5.5,1.51-12.2,3.2-24.39,4.31-36.62,3-32.68,2.44-65.48,3-98.23.5-29.65.82-59.31,1.79-88.95.91-27.71,2.87-55.38,3.82-83.09.82-24.15.93-48.32,1.26-72.49,0-3.07-.48-6.14-.77-9.61-1.71.61-2.94,1-4.13,1.49q-45,18.57-89.93,37.16c-5.64,2.32-8.61,1.28-10.85-3.81-17.07-38.68-37.17-75.82-57.37-112.9-.36-.65-.74-1.29-1.09-1.94-2.64-5-2-7.79,2.79-10.85,13.36-8.55,26.7-17.14,40.15-25.53C73,94.3,101.78,76.81,130.19,58.79a231.87,231.87,0,0,1,64.47-28.2c21.87-5.89,43.75-11.77,65.7-17.38C267.2,11.46,273.17,8.47,278,3.4c3.46-3.67,6.82-4.2,11.49-2.24,13.49,5.66,27.74,8.43,42.24,9.92a219.6,219.6,0,0,0,44.84,0c14.65-1.5,29-4.39,42.66-10.06,4.35-1.81,7.5-1.27,10.72,2.12,5.47,5.76,12.38,8.79,20.11,10.63,27.81,6.59,55.46,13.8,82.61,22.85a163.06,163.06,0,0,1,34.26,15.69q48.84,30.09,97.6,60.28c12.73,7.89,25.28,16,37.91,24.08,1,.64,2,1.24,3,2,2.89,2.25,3.59,4.94,2.12,8.25-.59,1.35-1.37,2.62-2.08,3.92-18.75,34.17-37.13,68.53-53.39,104-1.17,2.56-2.28,5.15-3.42,7.72-2.6,5.88-5.3,7.05-11.19,4.67-10.44-4.22-20.88-8.43-31.28-12.74Q576.57,242.19,547,229.85C546.1,229.45,545.13,229.12,543.19,228.39ZM548.5,48.51c-8-2.86-15.31-5.68-22.75-8.1C498.83,31.66,471.4,24.76,443.93,18a11.45,11.45,0,0,0-6.84.36c-8.26,2.83-16.52,5.7-24.88,8.2a232.45,232.45,0,0,1-45.67,9.2C350.16,37.25,334,35.49,318,32a344.84,344.84,0,0,1-45.93-13.73,10.21,10.21,0,0,0-5.51-.74q-19.22,4.61-38.33,9.64c-20.47,5.45-40.9,11-60.74,18.52-2.45.93-4.84,2-7.51,3.14.82,1.36,1.38,2.38,2,3.35A176.59,176.59,0,0,1,182.25,94c8.15,24.63,10.62,49.78,6.36,75.45a156.07,156.07,0,0,1-17.89,50.43,7.68,7.68,0,0,0-.9,6.65,28.89,28.89,0,0,1,1.18,8.34c.14,14.52.41,29,.08,43.56-.45,20.16-1.31,40.31-2.16,60.46-.92,21.77-2.43,43.53-3,65.31-1,39.43-1.52,78.87-2,118.31-.28,25.07-1.41,50.08-3.86,75-.33,3.36-.7,6.73-1.08,10.3a24,24,0,0,0,3.54,1.18c5.56.9,11.1,2.06,16.69,2.48,17.89,1.33,35.78,2.85,53.69,3.41,33,1,66.11,1.78,99.17,2,56.93.4,113.87,0,170.73-3.46,12.86-.78,25.67-2.31,38.49-3.62a67.29,67.29,0,0,0,7.78-1.72c-.11-1.64-.17-2.81-.27-4-1.11-12.55-2.52-25.08-3.26-37.65-.78-13.31-1.06-26.66-1.33-40-.41-19.86-.67-39.73-.9-59.6-.42-36.18-1.12-72.35-3.08-108.48-.86-15.7-1.39-31.41-2.12-47.11-1.11-24-2-48-1.34-72a50.67,50.67,0,0,1,1.4-11.88,10.08,10.08,0,0,0-1.16-8.28c-15.15-27.65-21.84-57.2-18.86-88.65,2.64-28,12.08-53.63,27.25-77.22C546.36,52,547.2,50.58,548.5,48.51Zm141.34,86.91c-45.55-28.72-90.48-57.86-137.06-84.63a28.6,28.6,0,0,0-2.16,2.73c-3.94,6.78-8.2,13.41-11.68,20.42a158,158,0,0,0-17.05,69.74c-.2,26.32,6.68,50.92,19.26,74a13.22,13.22,0,0,0,6.93,6.38q39,16.06,77.93,32.32a25.55,25.55,0,0,0,2.48.73ZM80.23,256.75a11.64,11.64,0,0,0,1.8-.33q39.6-16.43,79.2-32.84a9.91,9.91,0,0,0,5.1-4.62c15.4-27.87,22.44-57.49,19.1-89.37C182.55,102.07,173.05,77,157.87,54c-.7-1.06-1.57-2-2.51-3.16C108.84,77.61,64.1,106.54,18.9,135.1,39.47,175.89,59.79,216.21,80.23,256.75ZM274.38,14.17c.8.4,1.31.71,1.87.92a318.46,318.46,0,0,0,47.32,13.6,148.81,148.81,0,0,0,52.14,1.65c18.8-2.88,37-8,55-14.22,1.22-.43,2.39-1,3.76-1.58-3.27-2.81-6.21-5.48-9.33-7.9a4,4,0,0,0-3.15-.4c-2.69.79-5.25,2-7.92,2.88-15.43,5.1-31.32,7.53-47.52,8.48A218.12,218.12,0,0,1,317.8,15a141,141,0,0,1-31.16-8.67c-1.57-.64-2.7-.64-4,.58C280.08,9.28,277.36,11.55,274.38,14.17ZM549.89,613.09c-10.62,1.32-20.57,3-30.59,3.7-22,1.49-44.07,2.89-66.12,3.53-29.48.87-59,1.19-88.46,1.36-50.1.28-100.19-.27-150.22-3.07-15.51-.88-31-2.73-46.44-4.23-3.18-.3-6.31-1-9.75-1.64-.25,1.87-.46,3.39-.68,5.08,2.52.41,4.54.88,6.58,1,17.13,1.43,34.23,3.23,51.38,4.12,28.85,1.51,57.72,2.89,86.6,3.51,47.57,1,95.14.79,142.69-1.2,30.95-1.3,61.87-2.8,92.71-5.65,4.35-.41,8.66-1.19,13.13-1.82Zm-474-354.2c-2.77-7.72-59-118.58-61.41-121l-8.92,5.91c21.48,39.35,42.5,78.37,60.59,119ZM693.54,137.83,632.48,259l9.63,3.87c18.11-41,39.27-79.93,60.55-119.12Z"/><path class="cls-1" d="M548.5,48.51c-1.3,2.07-2.14,3.45-3,4.8-15.17,23.59-24.61,49.26-27.25,77.22-3,31.45,3.71,61,18.86,88.65a10.08,10.08,0,0,1,1.16,8.28,50.67,50.67,0,0,0-1.4,11.88c-.64,24,.23,48,1.34,72,.73,15.7,1.26,31.41,2.12,47.11,2,36.13,2.66,72.3,3.08,108.48.23,19.87.49,39.74.9,59.6.27,13.34.55,26.69,1.33,40,.74,12.57,2.15,25.1,3.26,37.65.1,1.16.16,2.33.27,4a67.29,67.29,0,0,1-7.78,1.72c-12.82,1.31-25.63,2.84-38.49,3.62C446,617,389.08,617.38,332.15,617c-33.06-.24-66.12-1-99.17-2-17.91-.56-35.8-2.08-53.69-3.41-5.59-.42-11.13-1.58-16.69-2.48a24,24,0,0,1-3.54-1.18c.38-3.57.75-6.94,1.08-10.3,2.45-25,3.58-50,3.86-75,.44-39.44,1-78.88,2-118.31.53-21.78,2-43.54,3-65.31.85-20.15,1.71-40.3,2.16-60.46.33-14.51.06-29-.08-43.56a28.89,28.89,0,0,0-1.18-8.34,7.68,7.68,0,0,1,.9-6.65,156.07,156.07,0,0,0,17.89-50.43c4.26-25.67,1.79-50.82-6.36-75.45A176.59,176.59,0,0,0,162,52.15c-.64-1-1.2-2-2-3.35,2.67-1.12,5.06-2.21,7.51-3.14,19.84-7.51,40.27-13.07,60.74-18.52q19.1-5.07,38.33-9.64a10.21,10.21,0,0,1,5.51.74A344.84,344.84,0,0,0,318,32c16,3.52,32.18,5.28,48.56,3.81a232.45,232.45,0,0,0,45.67-9.2c8.36-2.5,16.62-5.37,24.88-8.2a11.45,11.45,0,0,1,6.84-.36c27.47,6.74,54.9,13.64,81.82,22.39C533.19,42.83,540.51,45.65,548.5,48.51Z"/><path class="cls-1" d="M689.84,135.42,628.49,257.11a25.55,25.55,0,0,1-2.48-.73q-39-16.17-77.93-32.32a13.22,13.22,0,0,1-6.93-6.38c-12.58-23.08-19.46-47.68-19.26-74a158,158,0,0,1,17.05-69.74c3.48-7,7.74-13.64,11.68-20.42a28.6,28.6,0,0,1,2.16-2.73C599.36,77.56,644.29,106.7,689.84,135.42Z"/><path class="cls-1" d="M80.23,256.75C59.79,216.21,39.47,175.89,18.9,135.1c45.2-28.56,89.94-57.49,136.46-84.3.94,1.17,1.81,2.1,2.51,3.16,15.18,23,24.68,48.11,27.56,75.63,3.34,31.88-3.7,61.5-19.1,89.37a9.91,9.91,0,0,1-5.1,4.62Q121.62,240,82,256.42A11.64,11.64,0,0,1,80.23,256.75Z"/><path class="cls-1" d="M274.38,14.17c3-2.62,5.7-4.89,8.27-7.31,1.29-1.22,2.42-1.22,4-.58A141,141,0,0,0,317.8,15a218.12,218.12,0,0,0,48.7,2.65c16.2-1,32.09-3.38,47.52-8.48,2.67-.88,5.23-2.09,7.92-2.88a4,4,0,0,1,3.15.4c3.12,2.42,6.06,5.09,9.33,7.9-1.37.57-2.54,1.15-3.76,1.58-17.93,6.23-36.15,11.34-55,14.22a148.81,148.81,0,0,1-52.14-1.65,318.46,318.46,0,0,1-47.32-13.6C275.69,14.88,275.18,14.57,274.38,14.17Z"/><path class="cls-1" d="M549.89,613.09l.83,4.74c-4.47.63-8.78,1.41-13.13,1.82-30.84,2.85-61.76,4.35-92.71,5.65-47.55,2-95.12,2.21-142.69,1.2-28.88-.62-57.75-2-86.6-3.51-17.15-.89-34.25-2.69-51.38-4.12-2-.17-4.06-.64-6.58-1,.22-1.69.43-3.21.68-5.08,3.44.59,6.57,1.34,9.75,1.64,15.47,1.5,30.93,3.35,46.44,4.23,50,2.8,100.12,3.35,150.22,3.07,29.49-.17,59-.49,88.46-1.36,22.05-.64,44.1-2,66.12-3.53C529.32,616.11,539.27,614.41,549.89,613.09Z"/><path class="cls-1" d="M75.89,258.89l-9.74,3.94C48.06,222.18,27,183.16,5.56,143.81l8.92-5.91C16.86,140.31,73.12,251.17,75.89,258.89Z"/><path class="cls-1" d="M693.54,137.83l9.12,5.88c-21.28,39.19-42.44,78.13-60.55,119.12L632.48,259Z"/></g></g></svg>