<svg xmlns="http://www.w3.org/2000/svg" viewBox="0 0 708.03 632.28"><defs><style>.cls-1{fill:#fff;}</style></defs><g id="Layer_2" data-name="Layer 2"><g id="Layer_1-2" data-name="Layer 1"><path d="M164.9,228.07C162,229.28,160,230.16,158,231q-43.74,18-87.49,36.07c-5.3,2.18-8.32,1.07-10.48-3.84C42.8,224.29,22.6,186.88,2.2,149.58c-.43-.78-.88-1.55-1.26-2.36-1.75-3.71-1.07-6.53,2.15-9,.47-.36,1-.67,1.48-1,43.23-27,86.57-53.87,129.65-81.12,20.56-13,43-21.1,66.23-27.45q29.76-8.14,59.72-15.63C267,11.35,273,8.36,277.81,3.35,281.29-.24,284.88-.83,289.45,1c13.67,5.6,28,8.44,42.69,9.9a220.4,220.4,0,0,0,45.72-.16c13.73-1.48,27.25-4.17,40.07-9.48,5-2.07,8.9-1.67,12.79,2.41,4.57,4.8,10.36,7.65,16.91,9.24,28.64,6.91,57.19,14.17,85.16,23.56a157.25,157.25,0,0,1,33.08,15.06Q624.64,88,683.39,124.41c6.42,4,12.66,8.27,19.16,12.13,6.77,4,6.44,7.47,3.43,13.1Q685.42,188,665.36,226.7c-6,11.58-11.2,23.53-16.68,35.36-2.91,6.29-5.33,7.38-11.88,4.68q-44.76-18.47-89.51-37c-1.07-.44-2.18-.8-3.76-1.38a26.83,26.83,0,0,0-.66,4c-.14,14.37-.53,28.75-.23,43.11.4,19.12,1.28,38.23,2.09,57.33.95,22.52,2.14,45,3,67.54.46,11.7.55,23.41.74,35.12.59,36.32,1,72.64,1.76,109a640.36,640.36,0,0,0,5.19,66.9c.24,1.91.66,3.8,1.06,5.68.72,3.44,0,5-3.48,5.78a77.92,77.92,0,0,1-11.82,2c-22.46,1.66-44.92,3.56-67.41,4.61-28.28,1.33-56.59,2.41-84.89,2.72q-50.46.55-100.93-.48c-26.23-.53-52.44-2-78.63-3.47-16.26-.94-32.48-2.72-48.7-4.22a28.47,28.47,0,0,1-6.49-1.45c-2.65-.91-3.2-2-2.73-4.75,4.8-28.59,6.18-57.43,6.64-86.35.32-20.31.55-40.62.91-60.93.45-25.79.68-51.59,1.58-77.37,1-27.85,2.88-55.66,3.85-83.51.82-23.71.92-47.43,1.24-71.15C165.71,235.19,165.2,232,164.9,228.07ZM445.84,19c-2,5.85-3.85,11.78-6.06,17.57C432.57,55.49,423,73,408.16,87,386,108.11,360,114.55,330.59,105.81c-16-4.76-28.47-14.93-38.91-27.7C278.35,61.78,269.77,43,263.66,23c-.42-1.39-.88-2.77-1.4-4.41-1.5.29-2.79.47-4.05.79-12.2,3.09-24.43,6.05-36.58,9.33-19,5.14-38,10.4-56.35,17.61-1.74.68-3.42,1.48-5.39,2.33.88,1.43,1.47,2.44,2.11,3.41a171.41,171.41,0,0,1,16.58,31.88c12.48,31.62,15.75,64,7.49,97.18a162.05,162.05,0,0,1-15.38,38.7c-.84,1.52-2,2.9-1.36,4.93,2.32,7.33,2.31,15,2.21,22.48q-.49,35.58-1.79,71.13c-1.07,28.14-3,56.26-3.77,84.41-1,36.75-1.42,73.52-1.91,110.28-.36,26.39-.71,52.76-3.58,79-.56,5.13-1,10.28-1.46,15.94a66,66,0,0,0,7.84,1.68c16.07,1.52,32.13,3.46,48.24,4.21,28,1.3,56,2.31,84,2.58q57.58.57,115.18-.22c30.82-.46,61.64-1.78,92.43-3.15,11.67-.52,23.3-2.17,34.93-3.48,2.54-.29,5.28-.47,7.46-2.21-.07-1.09-.13-2-.2-2.85-1.34-16.09-3.38-32.17-3.87-48.29-1.07-34.82-1.32-69.66-2-104.49-.38-20.75-.62-41.51-1.35-62.25-.81-22.52-2.28-45-3.15-67.52q-1.3-34.21-1.92-68.46a150,150,0,0,1,1.4-25.26,15.75,15.75,0,0,0-1.75-10.73c-16-29.78-22-61.46-17.2-95A172.29,172.29,0,0,1,545.55,53c.87-1.35,1.69-2.74,2.54-4.11C536.3,42.33,455.78,18.9,445.84,19Zm106.9,31.54c-.78.92-1.21,1.33-1.53,1.81C532.75,79.87,522.38,110,521.9,143.24c-.38,26,6.42,50.34,18.65,73.25a16,16,0,0,0,8.46,7.86c25.48,10.41,50.89,21,76.33,31.52.92.38,1.9.61,3.14,1,20.46-40.6,40.82-81,61.32-121.65C644.22,106.48,599.37,77.43,552.74,50.58Zm-397.26-.07C109,77.3,64.25,106.25,18.86,134.9c20.57,40.8,41,81.33,61.51,122,7.15-2.92,13.74-5.57,20.29-8.29Q130.8,236,160.92,223.46a9.25,9.25,0,0,0,5-4.07c15.51-27.8,22.73-57.37,19.54-89.26-2.74-27.39-12.09-52.38-27-75.4C157.63,53.39,156.64,52.13,155.48,50.51ZM292,26.24a21.86,21.86,0,0,0,.74,2.8c3.09,7.2,5.94,14.53,9.42,21.54a74.47,74.47,0,0,0,15,20.31C327.13,80.58,339,86,353,86.29c15.56.29,28.59-5.65,39.31-16.75,11.37-11.78,18.3-26.11,23.39-41.45.12-.35-.11-.8-.2-1.37C374.42,39.43,333.51,39.42,292,26.24Zm-23.88-9a157.74,157.74,0,0,0,10.49,28.94c6.79,14.48,15.31,27.76,27.28,38.56,17.39,15.66,37.69,21.71,60.81,17.86,16-2.66,29.1-10.64,40.1-22.21,16.64-17.49,26.37-38.76,32.91-61.69a5,5,0,0,0,0-1.68l-13.54-8.9c-2.65,8.72-4.93,17.46-7.95,26-5.06,14.2-12.14,27.29-22.61,38.38-22.74,24.08-59.51,24.21-82.08.89A98.77,98.77,0,0,1,302,58.78c-9.43-14.42-14.88-30.53-18.76-47.21-.29-1.23-.65-2.44-1-3.64Zm281.7,595.19c-3.64.65-6.68,1.42-9.75,1.72-15.19,1.49-30.36,3.36-45.59,4.16-24.57,1.29-49.17,2.22-73.77,2.62q-48.48.76-97,.39c-31-.27-62-1.18-92.93-2.08-12-.35-24-1.24-35.95-2.26s-24.08-2.52-36.58-3.86c-.19,1.07-.45,2.58-.8,4.53,4.49.63,8.55,1.42,12.64,1.73,20.55,1.53,41.08,3.23,61.65,4.3,23.39,1.22,46.81,2.28,70.22,2.59,33.8.45,67.63.74,101.42,0,34.37-.74,68.72-2.71,103.08-4.34,10.65-.51,21.28-1.61,31.9-2.58,4.07-.37,8.1-1.14,12.29-1.75C550.32,615.62,550.08,614.2,549.79,612.46ZM421.7,6.17c-22.61,8.58-45,11.6-67.79,11.6s-45.25-3.15-67.24-11.46c.49,2.51.77,4.24,1.17,6,.46,2,1.11,4,1.5,6,.34,1.73,1.52,2.45,3,2.95,3.64,1.26,7.23,2.68,10.93,3.7,29.22,8.11,58.77,8.88,88.46,3.28,8-1.51,15.69-4.25,23.48-6.6,1.24-.38,2.83-1.46,3.19-2.57C419.65,15.17,420.46,11.14,421.7,6.17ZM76.27,258.52c-20.52-40.68-40.74-80.79-61.06-121.08-3.48,2.16-6.84,3.64-9.52,6.52C27.09,183,48,222.06,66.14,262.65Zm565.78,4.14c18.07-40.85,39.19-79.83,60.56-119.1l-9.11-5.9-61,121Z"/><path class="cls-1" d="M445.84,19c9.94-.14,90.46,23.29,102.25,29.8-.85,1.37-1.67,2.76-2.54,4.11a172.29,172.29,0,0,0-26.44,69.66c-4.82,33.52,1.23,65.2,17.2,95a15.75,15.75,0,0,1,1.75,10.73,150,150,0,0,0-1.4,25.26q.58,34.23,1.92,68.46c.87,22.51,2.34,45,3.15,67.52.73,20.74,1,41.5,1.35,62.25.64,34.83.89,69.67,2,104.49.49,16.12,2.53,32.2,3.87,48.29.07.88.13,1.76.2,2.85-2.18,1.74-4.92,1.92-7.46,2.21-11.63,1.31-23.26,3-34.93,3.48-30.79,1.37-61.61,2.69-92.43,3.15q-57.59.86-115.18.22c-28-.27-56-1.28-84-2.58-16.11-.75-32.17-2.69-48.24-4.21A66,66,0,0,1,159,608c.51-5.66.9-10.81,1.46-15.94,2.87-26.28,3.22-52.65,3.58-79,.49-36.76.87-73.53,1.91-110.28.79-28.15,2.7-56.27,3.77-84.41q1.33-35.55,1.79-71.13c.1-7.5.11-15.15-2.21-22.48-.64-2,.52-3.41,1.36-4.93a162.05,162.05,0,0,0,15.38-38.7c8.26-33.22,5-65.56-7.49-97.18A171.41,171.41,0,0,0,162,52.06c-.64-1-1.23-2-2.11-3.41,2-.85,3.65-1.65,5.39-2.33,18.36-7.21,37.34-12.47,56.35-17.61,12.15-3.28,24.38-6.24,36.58-9.33,1.26-.32,2.55-.5,4.05-.79.52,1.64,1,3,1.4,4.41,6.11,20,14.69,38.78,28,55.11,10.44,12.77,22.92,22.94,38.91,27.7C360,114.55,386,108.11,408.16,87,423,73,432.57,55.49,439.78,36.61,442,30.82,443.84,24.89,445.84,19Z"/><path class="cls-1" d="M552.74,50.58c46.63,26.85,91.48,55.9,137.06,84.65-20.5,40.66-40.86,81.05-61.32,121.65-1.24-.4-2.22-.63-3.14-1-25.44-10.52-50.85-21.11-76.33-31.52a16,16,0,0,1-8.46-7.86c-12.23-22.91-19-47.23-18.65-73.25.48-33.21,10.85-63.37,29.31-90.85C551.53,51.91,552,51.5,552.74,50.58Z"/><path class="cls-1" d="M155.48,50.51c1.16,1.62,2.15,2.88,3,4.22,14.88,23,24.23,48,27,75.4,3.19,31.89-4,61.46-19.54,89.26a9.25,9.25,0,0,1-5,4.07Q130.8,236,100.66,248.6c-6.55,2.72-13.14,5.37-20.29,8.29-20.51-40.66-40.94-81.19-61.51-122C64.25,106.25,109,77.3,155.48,50.51Z"/><path class="cls-1" d="M292,26.24c41.54,13.18,82.45,13.19,123.53.48.09.57.32,1,.2,1.37-5.09,15.34-12,29.67-23.39,41.45-10.72,11.1-23.75,17-39.31,16.75-14-.26-25.87-5.71-35.87-15.4a74.47,74.47,0,0,1-15-20.31c-3.48-7-6.33-14.34-9.42-21.54A21.86,21.86,0,0,1,292,26.24Z"/><path class="cls-1" d="M268.09,17.27l14.14-9.34c.32,1.2.68,2.41,1,3.64,3.88,16.68,9.33,32.79,18.76,47.21a98.77,98.77,0,0,0,11.57,14.59c22.57,23.32,59.34,23.19,82.08-.89,10.47-11.09,17.55-24.18,22.61-38.38,3-8.49,5.3-17.23,7.95-25.95l13.54,8.9a5,5,0,0,1,0,1.68c-6.54,22.93-16.27,44.2-32.91,61.69-11,11.57-24.14,19.55-40.1,22.21-23.12,3.85-43.42-2.2-60.81-17.86-12-10.8-20.49-24.08-27.28-38.56A157.74,157.74,0,0,1,268.09,17.27Z"/><path class="cls-1" d="M549.79,612.46c.29,1.74.53,3.16.86,5.18-4.19.61-8.22,1.38-12.29,1.75-10.62,1-21.25,2.07-31.9,2.58-34.36,1.63-68.71,3.6-103.08,4.34-33.79.73-67.62.44-101.42,0-23.41-.31-46.83-1.37-70.22-2.59-20.57-1.07-41.1-2.77-61.65-4.3-4.09-.31-8.15-1.1-12.64-1.73.35-1.95.61-3.46.8-4.53,12.5,1.34,24.52,2.83,36.58,3.86s23.95,1.91,35.95,2.26c31,.9,61.94,1.81,92.93,2.08q48.48.43,97-.39c24.6-.4,49.2-1.33,73.77-2.62,15.23-.8,30.4-2.67,45.59-4.16C543.11,613.88,546.15,613.11,549.79,612.46Z"/><path class="cls-1" d="M421.7,6.17c-1.24,5-2.05,9-3.33,12.89-.36,1.11-1.95,2.19-3.19,2.57-7.79,2.35-15.52,5.09-23.48,6.6C362,33.83,332.46,33.06,303.24,25c-3.7-1-7.29-2.44-10.93-3.7-1.45-.5-2.63-1.22-3-2.95-.39-2-1-4-1.5-6-.4-1.72-.68-3.45-1.17-6,22,8.31,44.38,11.46,67.24,11.46S399.09,14.75,421.7,6.17Z"/><path class="cls-1" d="M76.27,258.52l-10.13,4.13C48,222.06,27.09,183,5.69,144c2.68-2.88,6-4.36,9.52-6.52C35.53,177.73,55.75,217.84,76.27,258.52Z"/><path class="cls-1" d="M642.05,262.66l-9.58-4,61-121,9.11,5.9C681.24,182.83,660.12,221.81,642.05,262.66Z"/></g></g></svg>